<svg width="122" height="56" viewBox="0 0 122 56" fill="none" xmlns="http://www.w3.org/2000/svg">
<g clip-path="url(#clip0_1_45)">
<path d="M71.2103 43.9626C74.6035 48.7825 79.4444 52.3969 85.0311 54.2817C90.6178 56.1664 96.6599 56.2236 102.281 54.4448C107.903 52.666 112.811 49.1439 116.295 44.389C119.779 39.6341 121.657 33.8936 121.657 28C121.657 22.1063 119.779 16.3659 116.295 11.611C112.811 6.85609 107.903 3.3339 102.281 1.55515C96.6599 -0.223609 90.6178 -0.166469 85.0311 1.71828C79.4444 3.60303 74.6035 7.21742 71.2103 12.0374L75.3991 14.6542C78.2304 10.6748 82.2538 7.69804 86.8884 6.1538C91.5229 4.60957 96.5285 4.57784 101.182 6.06319C105.836 7.54854 109.897 10.4741 112.778 14.4172C115.66 18.3604 117.213 23.117 117.213 28C117.213 32.883 115.66 37.6396 112.778 41.5827C109.897 45.5259 105.836 48.4514 101.182 49.9368C96.5285 51.4221 91.5229 51.3904 86.8884 49.8461C82.2538 48.3019 78.2304 45.3251 75.3991 41.3458M32.4635 19.3645H36.1288C39.2704 19.3645 40.3176 20.4112 40.3176 23.028C40.3176 25.6448 38.7468 26.6916 36.1288 26.6916H32.4635M40.8412 30.3551C43.9828 28.785 46.0773 26.6916 46.0773 23.028C46.0773 17.7944 42.412 15.1775 36.6524 15.1775H27.2275V40.8224H32.4635V30.8785H35.6052L41.3648 40.8224H47.1245M8.90129 31.4018L12.0429 19.8878L15.7082 31.4018H8.90129ZM15.7082 15.1775H9.42489L0.523605 40.8224H5.75966L7.33047 35.5888H17.279L18.8498 40.8224H24.6094M56.0258 19.3645H58.6438C63.8798 19.3645 66.4979 22.5046 66.4979 28.2617C66.4979 34.0187 63.8798 36.6355 58.6438 36.6355H56.0258M50.7897 40.8224H58.1202C67.0215 40.8224 71.7339 36.6355 71.7339 27.7383C71.7339 19.3645 67.5451 15.1775 59.1674 15.1775H50.7897M103.15 36.6355V13.6075L79.588 21.9813V27.7383L87.4421 25.1215V41.8691" fill="white"/>
</g>
<defs>
<clipPath id="clip0_1_45">
<rect width="122" height="56" fill="white"/>
</clipPath>
</defs>
</svg>
