<svg width="116" height="36" viewBox="0 0 116 36" fill="none" xmlns="http://www.w3.org/2000/svg">
<path fill-rule="evenodd" clip-rule="evenodd" d="M18.6223 0.0375793C18.7946 0.0188639 18.9646 0.00225517 19.1205 0.000267943C20.212 -0.012502 20.8797 0.429065 20.939 1.7797C21.0784 4.91559 20.1612 9.21139 18.0493 13.1906C13.5232 12.7126 9.08339 11.3224 7.10106 9.35794C6.17467 8.44001 6.50985 7.2173 7.06371 6.34656C9.06356 3.20078 14.3148 0.504154 18.6223 0.0375793ZM48.017 12.8298C48.017 7.22634 52.5594 2.68818 58.1682 2.68818C63.7769 2.68818 68.3318 7.22634 68.3318 12.8298C68.3318 18.4341 63.7769 22.9839 58.1682 22.9839C52.5594 22.9839 48.017 18.4341 48.017 12.8298ZM105.025 2.68818C99.4166 2.68818 94.8742 7.22634 94.8742 12.8298C94.8742 18.4341 99.4166 22.9839 105.025 22.9839C110.636 22.9839 115.176 18.4341 115.176 12.8298C115.176 7.22634 110.636 2.68818 105.025 2.68818ZM35.9976 22.6106V2.8126H41.8766V17.098H48.4032L47.3196 22.6106H35.9976ZM69.0916 2.8126L68.0079 8.25052H72.1805V22.6106H77.9972V8.25052H81.2356L82.3192 2.8126H69.0916ZM82.0825 8.25052L83.1661 2.8126H96.3938L95.3101 8.25052H92.0842V22.6106H86.2675V8.25052H82.0825ZM27.6276 5.08977C27.0856 5.09928 26.5025 5.28171 25.9461 5.59996C23.1913 7.17703 20.8775 10.1322 19.27 13.2902C23.2347 13.5642 27.0946 13.1217 29.2468 11.7098C30.5168 10.8764 30.5705 9.42728 30.1934 7.54118C29.8524 5.83581 28.8199 5.06883 27.6276 5.08977ZM62.5774 12.8297C62.5774 10.4017 60.5992 8.4371 58.1682 8.4371C55.7379 8.4371 53.7714 10.4017 53.7714 12.8297C53.7714 15.2585 55.7379 17.2348 58.1682 17.2348C60.5992 17.2348 62.5774 15.2585 62.5774 12.8297ZM105.025 8.4371C107.456 8.4371 109.422 10.4017 109.422 12.8297C109.422 15.2585 107.456 17.2348 105.025 17.2348C102.595 17.2348 100.629 15.2585 100.629 12.8297C100.629 10.4017 102.595 8.4371 105.025 8.4371ZM5.76839 13.8129C6.78689 13.663 8.08596 13.5921 9.54237 13.5889C11.9697 13.5833 14.8259 13.774 17.5138 14.1488C14.9296 18.5406 10.8383 22.3811 5.04598 23.5936C1.82565 24.268 0.81372 22.0137 0.823604 19.537C0.83427 16.7368 1.451 14.4484 5.76839 13.8129ZM18.7593 14.3354C17.4375 17.2445 16.7369 20.2056 16.8786 22.2994C16.9349 23.1283 17.2224 23.8403 18.4604 23.7056C20.8435 23.4468 24.9189 21.6766 26.5066 19.4374C27.1473 18.5347 27.2246 17.7567 26.382 16.9362C25.2019 15.7869 22.2059 14.9033 18.7593 14.3354ZM15.384 18.8899L16.3804 18.2428C14.4544 22.8812 11.5641 28.4959 9.35555 29.2555L8.04773 27.8743C11.1667 27.6672 14.4118 21.034 15.384 18.8899ZM73.0275 29.0066V30.811C73.0275 31.0025 73.0321 31.2128 73.0357 31.3772C73.038 31.4824 73.0399 31.5694 73.0399 31.6198C72.7252 31.2408 72.3514 31.0848 71.9064 31.0848C71.5735 31.0848 71.2837 31.1736 70.9972 31.3585C70.3672 31.7657 70.0257 32.5243 70.0257 33.5237C70.0257 34.9859 70.721 35.8756 71.9064 35.8756C72.3978 35.8756 72.7776 35.7079 73.1022 35.3654C73.1296 35.5968 73.1429 35.6624 73.1894 35.8009H73.999C73.8969 35.514 73.8744 34.9952 73.8744 34.2455V29.1435L73.0275 29.0066ZM41.1542 29.1932L42.0136 29.019C42.0783 29.2968 42.1132 29.6479 42.1132 30.1016V31.1344C42.1132 31.3011 42.1066 31.5153 42.0883 31.7566C42.2917 31.5709 42.3889 31.4911 42.5741 31.3708C42.9169 31.1486 43.2401 31.0597 43.583 31.0597C44.13 31.0597 44.6151 31.3395 44.7538 31.7566C44.8277 31.9689 44.8534 32.0869 44.8534 32.5032V35.8008H44.0189V32.6276C44.0189 32.3042 43.9492 32.0826 43.857 31.9806C43.7739 31.8885 43.5688 31.7939 43.3463 31.7939C42.9479 31.7939 42.4743 32.062 42.1132 32.4783V35.8008H41.2538V30.1762C41.2538 29.7781 41.2189 29.4618 41.1542 29.1932ZM59.0899 29.019L58.1931 29.2056C58.2678 29.5664 58.2927 29.8802 58.2927 30.5371V34.7431C58.2927 35.1967 58.3285 35.3578 58.4671 35.5519C58.6431 35.8016 58.8566 35.9003 59.1895 35.9003C59.3937 35.9003 59.5491 35.8746 59.7251 35.8008L59.5756 35.2657C59.4736 35.2939 59.3448 35.2681 59.2892 35.2035C59.1962 35.1205 59.1646 35.0093 59.1646 34.5191L59.1647 30.207C59.1654 29.701 59.1659 29.299 59.0899 29.019ZM90.7515 29.2056L91.6358 29.019C91.7188 29.3249 91.723 29.7766 91.723 30.3505V34.5191C91.723 35.0093 91.7546 35.1205 91.8475 35.2035C91.9031 35.2681 92.0319 35.2939 92.134 35.2657L92.271 35.8008C92.0943 35.8746 91.9521 35.9003 91.7479 35.9003C91.415 35.9003 91.2015 35.8016 91.0255 35.5519C90.8868 35.3578 90.8511 35.1967 90.8511 34.7431V30.5371C90.8511 29.8802 90.8261 29.5664 90.7515 29.2056ZM84.8352 29.0564C84.4923 29.0564 84.2224 29.1111 84.0007 29.2679C83.75 29.4445 83.4775 29.7957 83.4775 30.4252C83.4775 30.499 83.4842 31.0789 83.5024 31.1718H83.0416V31.7691H83.49V35.8009H84.3494V31.7691H85.3458L85.57 31.1718H84.337V30.4252C84.337 29.9533 84.5704 29.6786 84.9597 29.6786C85.1723 29.6786 85.3534 29.7515 85.5576 29.8528L85.8441 29.3052C85.5568 29.1294 85.2146 29.0564 84.8352 29.0564ZM50.8444 29.7408C50.8444 29.3983 51.1093 29.1311 51.4423 29.1311C51.776 29.1311 52.0526 29.3892 52.0526 29.7408C52.0526 30.0734 51.7726 30.3506 51.4298 30.3506C51.0961 30.3506 50.8444 30.0734 50.8444 29.7408ZM35.9976 29.4297V35.8008H36.8819V32.9886C37.1509 32.9985 37.288 33.0898 37.4549 33.2748C37.9082 33.784 38.0728 34.0532 38.5634 34.8676C38.8232 35.3029 38.9014 35.4401 39.0865 35.8008H40.1702C40.1149 35.7147 39.9908 35.5158 39.8449 35.2821L39.8443 35.2811C39.6463 34.964 39.4084 34.583 39.2485 34.3325C39.0352 33.9999 38.8424 33.7244 38.7129 33.5485L38.7041 33.5368C38.5936 33.3892 38.441 33.1854 38.1524 32.9512C39.2182 32.9885 39.8588 32.1993 39.8588 31.2091C39.8588 30.5895 39.5855 30.158 39.2983 29.8901C38.9928 29.6031 38.5383 29.4297 37.7787 29.4297H35.9976ZM78.4082 35.8008V29.4297H80.1021C80.9257 29.4297 81.2788 29.5159 81.6217 29.7283C82.1679 30.0708 82.4686 30.6079 82.4686 31.2838C82.4686 32.0053 82.2609 32.4793 81.6964 32.9139C81.3718 33.1643 81.027 33.3121 80.3512 33.3121H79.2925V35.8008H78.4082ZM36.8819 30.1639H37.5545C37.8882 30.1639 38.1416 30.2013 38.3268 30.2759C38.6787 30.4144 38.9246 30.7779 38.9246 31.2216C38.9246 31.5923 38.7951 31.8953 38.6008 32.0802C38.3783 32.2934 38.07 32.3789 37.5047 32.3789H36.8819V30.1639ZM80.127 30.1639H79.2925V32.5904H80.2889C80.7239 32.5904 81.0072 32.4884 81.2106 32.2296C81.3874 32.0073 81.4722 31.7442 81.4722 31.3834C81.4722 30.9762 81.3734 30.6782 81.1608 30.475C80.9384 30.2619 80.6268 30.1639 80.127 30.1639ZM47.9299 31.0225C47.3554 31.0225 46.9059 31.2225 46.5349 31.6571C46.1372 32.129 45.9744 32.6445 45.9744 33.449C45.9744 34.9667 46.7669 35.9129 48.0544 35.9129C48.6563 35.9129 49.2071 35.7136 49.6612 35.3156L49.3373 34.8054C49.0036 35.1015 48.6272 35.2534 48.1914 35.2534C47.7473 35.2534 47.3735 35.0757 47.1327 34.7058C46.9941 34.4836 46.9334 34.1831 46.9334 33.785V33.673H49.7608V33.5237C49.7517 32.4596 49.5954 31.9366 49.1878 31.5202C48.8641 31.1869 48.4487 31.0225 47.9299 31.0225ZM53.1985 31.2589L54.0081 31.0349C54.1186 31.2572 54.17 31.458 54.17 31.7442L54.2321 31.6931C54.4609 31.5043 54.5891 31.3985 54.7679 31.2962C55.0368 31.1387 55.3401 31.0598 55.6273 31.0598C56.1179 31.0598 56.5573 31.3212 56.7234 31.7193C56.798 31.886 56.8355 32.0911 56.8355 32.3042V35.8009H55.9885V32.6775C55.9885 32.2611 55.9495 32.1166 55.839 31.9682C55.7461 31.8479 55.5791 31.7815 55.3657 31.7815C55.0328 31.7815 54.5345 32.0455 54.2198 32.3788V35.8009H53.3729V32.3539C53.3729 31.7983 53.328 31.5923 53.1985 31.2589ZM62.5151 31.0349C61.6261 31.0349 61.0261 31.378 60.5736 31.6366L60.5596 31.6447L60.9582 32.2544C61.3376 31.9674 61.8875 31.7193 62.3781 31.7193C63.0264 31.7193 63.1005 32.0937 63.1005 32.6402V32.9512C62.9801 32.9421 62.8879 32.9388 62.7767 32.9388C61.2758 32.9388 60.4226 33.5074 60.4226 34.5814C60.4226 35.4696 60.9908 35.9502 61.9172 35.9502C62.7233 35.9502 63.1171 35.4764 63.2375 35.328C63.3487 35.6523 63.5606 35.8889 63.8478 36L64.2838 35.4276C63.9227 35.2053 63.9101 34.9462 63.9101 34.3076C63.9101 33.9106 63.923 33.5022 63.9336 33.1653C63.9411 32.929 63.9475 32.7275 63.9475 32.5904C63.9475 32.1368 63.9217 31.9723 63.8478 31.7691C63.6718 31.2789 63.1916 31.0349 62.5151 31.0349ZM65.2553 31.2589L66.0524 31.0349C66.1637 31.2572 66.2144 31.458 66.2144 31.7442L66.2645 31.7028C66.5002 31.5079 66.6304 31.4002 66.8122 31.2962C67.0812 31.1387 67.3969 31.0598 67.6841 31.0598C68.1747 31.0598 68.6009 31.3212 68.7677 31.7193C68.8416 31.886 68.8798 32.0911 68.8798 32.3042V35.8009H68.0453V32.6775C68.0453 32.2611 68.0071 32.1166 67.8958 31.9682C67.8037 31.8479 67.6359 31.7815 67.4225 31.7815C67.0896 31.7815 66.5913 32.0455 66.2766 32.3788V35.8009H65.4297V32.3539C65.4297 31.7983 65.3856 31.5923 65.2553 31.2589ZM87.949 31.0349C87.0715 31.0349 86.4874 31.3691 86.0376 31.6266L86.006 31.6447L86.3921 32.2544C86.7715 31.9674 87.3338 31.7193 87.8244 31.7193C88.4728 31.7193 88.5468 32.0937 88.5468 32.6402V32.9512C88.4265 32.9421 88.3342 32.9388 88.223 32.9388C86.7229 32.9388 85.8565 33.5074 85.8565 34.5814C85.8565 35.4696 86.4379 35.9502 87.3636 35.9502C88.1638 35.9502 88.5447 35.4833 88.6687 35.3313L88.6714 35.328C88.7819 35.6523 89.007 35.8889 89.2942 36L89.7301 35.4276C89.369 35.2053 89.344 34.9462 89.344 34.3076C89.344 33.911 89.3569 33.5031 89.3675 33.1665L89.3675 33.1652C89.375 32.9289 89.3813 32.7275 89.3813 32.5904C89.3813 32.1368 89.3681 31.9723 89.2942 31.7691C89.1182 31.2789 88.6255 31.0349 87.949 31.0349ZM50.9939 31.1967L51.8782 31.0598V35.8008H50.9939V31.1967ZM93.0059 31.1718V31.794H95.2603L92.8191 35.1911V35.8008H95.9952L96.2816 35.1911H93.8653L96.182 31.8064V31.1718H93.0059ZM48.5776 31.9931C48.429 31.8074 48.2138 31.6696 47.9174 31.6696C47.2698 31.6696 46.9459 32.1966 46.9459 33.0384H48.864C48.864 32.5947 48.7627 32.2245 48.5776 31.9931ZM72.031 31.7691C72.4668 31.7691 72.7742 31.9176 73.015 32.2046V34.6311C72.8573 34.9089 72.5224 35.1662 72.031 35.1662C71.7164 35.1662 71.5029 35.0965 71.346 34.9298C71.0953 34.671 70.9848 34.4211 70.9848 33.5237C70.9848 32.9216 71.0462 32.5472 71.2214 32.242C71.3974 31.9459 71.679 31.7691 72.031 31.7691ZM75.1947 33.7228V32.8766H77.063V33.7228H75.1947ZM62.8016 33.5113C62.8755 33.5113 62.9585 33.5145 63.0881 33.5237L63.0507 34.7183C62.8382 35.0882 62.4677 35.3281 62.0792 35.3281C61.6069 35.3281 61.3568 35.0277 61.3568 34.5192C61.3568 34.2133 61.4175 34.0505 61.5934 33.8473C61.7786 33.6342 62.1624 33.5113 62.8016 33.5113ZM88.5219 33.5237C88.3924 33.5145 88.3218 33.5113 88.2479 33.5113C87.6095 33.5113 87.2249 33.6342 87.0397 33.8473C86.8638 34.0505 86.7906 34.2133 86.7906 34.5192C86.7906 35.0277 87.0532 35.3281 87.5255 35.3281C87.9148 35.3281 88.2837 35.0882 88.497 34.7183L88.5219 33.5237Z" fill="white"/>
</svg>
