<svg width="118" height="52" viewBox="0 0 118 52" fill="none" xmlns="http://www.w3.org/2000/svg">
<path d="M118 0L106.686 52H0V0H118ZM39.4424 11.377V39.6494C39.5062 39.6586 46.2568 40.623 52.0479 40.623C62.7192 40.623 65.6289 38.3506 65.6289 38.3506C65.6394 38.3328 66.5977 36.691 66.5977 30.5508C66.5977 24.374 65.6289 23.0752 65.6289 23.0752C65.6052 23.061 60.7547 20.1505 50.7568 20.1504C48.8165 20.1504 46.2298 20.4752 43.6436 20.7998V11.377H39.4424ZM71.4473 11.377V39.6494C71.4473 39.6494 78.2351 40.623 84.0566 40.623C94.7252 40.623 97.6348 38.3506 97.6348 38.3506C97.6479 38.3283 98.6035 36.6823 98.6035 30.5508C98.6035 24.374 97.6348 23.0752 97.6348 23.0752C97.6348 23.0752 92.7844 20.1504 82.7617 20.1504C80.8213 20.1504 78.2347 20.4752 75.6484 20.7998V11.377H71.4473ZM34.5918 20.4756C17.8254 20.7994 11.3479 24.681 11.3145 24.7012V40.2988H15.8418V27.626C17.7827 26.9737 23.6013 25.0264 34.5918 25.0264V20.4756ZM43.6436 25.6758C53.0201 24.0498 59.4849 25.6755 62.0713 26.6494C62.0713 27.6261 62.3935 29.2491 62.3936 30.875C62.3936 32.4982 62.0713 34.1247 62.0713 35.0986C60.7795 35.4261 57.8694 36.0752 52.0479 36.0752C49.7874 36.0752 46.8783 36.0756 43.6436 35.751V25.6758ZM75.6484 25.6758C85.0249 24.0498 91.4896 25.6755 94.0762 26.6494C94.0762 27.6261 94.3994 29.2491 94.3994 30.875C94.3994 32.4982 94.0762 34.1247 94.0762 35.0986C92.4614 35.4261 89.552 36.0752 84.0566 36.0752C81.7932 36.0752 78.8835 36.0756 75.6484 35.751V25.6758Z" fill="white"/>
</svg>
