<svg width="78" height="26" viewBox="0 0 78 26" fill="none" xmlns="http://www.w3.org/2000/svg">
<path d="M6.03936 0.160409C9.54635 -0.251092 13.0783 0.17272 16.5003 0.923104C16.3426 2.38751 16.1721 3.86397 16.0023 5.32838C14.0608 5.14684 12.1068 4.95365 10.1653 4.76002C9.19464 4.6632 8.15096 4.55402 7.22882 4.95338C6.54949 5.23174 6.10074 5.87309 5.90655 6.56275C5.71239 7.32524 5.56637 8.19731 6.00323 8.91139C6.47651 9.64957 7.35081 9.9885 8.15167 10.2669C10.4572 11.005 12.9936 11.211 15.0442 12.6028C15.8571 13.1595 16.5486 13.9097 16.9368 14.8294C17.6771 16.4754 17.5678 18.3395 17.2523 20.0823C17.0824 20.6873 16.9613 21.3166 16.6458 21.8733C15.942 23.5193 14.4732 24.7779 12.7864 25.3831C10.8328 26.097 8.68478 26.1097 6.63409 25.8313C4.4742 25.5045 2.30221 25.1776 0.130182 24.8508C0.42142 23.2169 0.712968 21.5828 1.00421 19.9368C3.67377 20.433 6.35544 20.8568 9.07354 20.9778C9.69237 20.9778 10.3839 20.905 10.845 20.4573C11.3911 19.9369 11.5253 19.1499 11.6224 18.4358C11.7193 17.746 11.5125 17.0076 10.9544 16.5598C10.0929 15.9064 9.01272 15.689 7.99346 15.4348C5.94283 14.9871 3.77086 14.5391 2.14483 13.1233C0.676507 11.8162 0.081482 9.81877 0.0208075 7.9065C-0.112655 6.2849 0.397019 4.65121 1.30694 3.30787C2.3626 1.67409 4.08582 0.426798 6.03936 0.160409Z" fill="white"/>
<path d="M78.0003 25.7102C76.1559 25.7102 74.3111 25.7217 72.4788 25.6975V7.38599C71.1561 8.19689 69.8328 9.00771 68.5101 9.81861C67.6 8.31796 66.6896 6.82962 65.7796 5.34107C67.9639 4.02186 70.1363 2.70227 72.3206 1.38306C72.4541 1.28624 72.6121 1.28639 72.7698 1.28639H78.0003V25.7102Z" fill="white"/>
<path fill-rule="evenodd" clip-rule="evenodd" d="M37.6634 13.0881C38.9495 17.2965 40.2366 21.5049 41.5228 25.7102C40.6751 25.705 39.8265 25.7058 38.9788 25.7073C37.8487 25.7093 36.7183 25.7113 35.5882 25.6975L34.2171 20.5901H25.9407L24.5579 25.7102H18.636C21.2086 17.2987 23.7807 8.87468 26.3411 0.463143H33.805C35.0914 4.66927 36.377 8.87899 37.6634 13.0881ZM30.0911 5.28053C29.4848 7.4404 28.9039 9.60449 28.3235 11.7678C27.9283 13.241 27.5333 14.714 27.1302 16.1848H33.0276C32.5362 14.3695 32.0483 12.551 31.5599 10.7327C31.0715 8.91426 30.5826 7.09592 30.0911 5.28053Z" fill="white"/>
<path d="M59.2269 5.53443H52.4192C52.4071 12.2515 52.4192 18.981 52.4192 25.7102H46.6556V5.53443H39.8353V0.463143H59.2269V5.53443Z" fill="white"/>
<path d="M65.5491 25.7102H59.761V19.3079H65.5491V25.7102Z" fill="white"/>
</svg>
