<svg width="58" height="32" viewBox="0 0 58 32" fill="none" xmlns="http://www.w3.org/2000/svg">
<path d="M48.791 7.00781H56.3096L54.5361 11.8496H48.791V23.6777C48.7912 25.3434 50.0571 27.2646 52.0684 27.2646C53.5002 27.2646 54.6073 26.2933 54.6221 26.2803L57.7061 29.8047C57.696 29.816 55.7454 32 52.0068 32C46.9106 32 43.8566 27.615 43.8564 23.9268L43.8672 0H48.791V7.00781Z" fill="white"/>
<path d="M9.19434 6.56152C14.1836 6.56152 16.4793 10.2589 16.4834 10.2656L12.7959 12.9541C12.7792 12.9341 11.3175 11.1839 9.28516 11.1836C7.53728 11.1836 6.53343 12.1695 6.5332 13.4922C6.5332 17.5836 17.542 16.7776 17.542 24.5352C17.5418 28.6614 14.3621 31.9951 9.08789 31.9951C3.38674 31.9949 0.293945 27.3271 0.293945 27.3271L4.1582 24.5C4.18357 24.535 6.22691 27.3397 9.05469 27.3398C10.956 27.3398 12.627 26.2983 12.627 24.625C12.6262 20.4858 1.61662 21.5634 1.61621 13.5107C1.61621 9.52048 4.66297 6.56166 9.19434 6.56152Z" fill="white"/>
<path d="M29.7314 24.3096L36.1133 7.03125H41.4346L32.3428 31.4824H27.0596L18.0352 7.03125H23.3262L29.7314 24.3096Z" fill="white"/>
</svg>
