<svg width="92" height="24" viewBox="0 0 92 24" fill="none" xmlns="http://www.w3.org/2000/svg">
<path fill-rule="evenodd" clip-rule="evenodd" d="M46.7324 0C53.2574 0.000185696 57.6579 4.81275 57.6816 11.9756C57.6816 12.6824 57.6331 13.5264 57.5635 14.043C57.5598 14.0707 57.5571 14.0901 57.5537 14.1094C57.5523 14.1174 57.5503 14.126 57.5488 14.1348L41.6455 14.1357L41.6729 14.2676C42.3445 17.2364 44.32 18.8057 47.3848 18.8057C49.3915 18.8056 51.2996 18.0902 52.9023 16.7373L52.9756 16.6758L56.5518 20.5986L56.4785 20.666C54.0052 22.9404 51.0046 23.9999 47.0352 24C40.0404 24 35.34 19.2059 35.3398 12.0703C35.3398 4.85082 39.9187 0 46.7324 0ZM46.6855 5.26465C43.9956 5.26465 42.3156 6.73676 41.6924 9.64062L41.6641 9.77148H51.5439L51.5156 9.64062C50.8943 6.77805 49.2237 5.26467 46.6855 5.26465Z" fill="white"/>
<path d="M10.1963 16.6553L14.5781 0.498047H20.8184L25.2012 16.6875L29.375 0.498047H35.3154L28.8682 23.501H21.9053L17.6582 8.95117L13.4111 23.501H6.44727L0 0.498047H6.02246L10.1963 16.6553Z" fill="white"/>
<path d="M66.417 18.292H76.0605V23.501H60.582V0.498047H66.417V18.292Z" fill="white"/>
<path d="M92 5.70703H85.375V23.501H79.54V5.70703H72.8984V0.498047H92V5.70703Z" fill="white"/>
</svg>
