<svg width="15" height="16" viewBox="0 0 15 16" fill="none" xmlns="http://www.w3.org/2000/svg">
<path fill-rule="evenodd" clip-rule="evenodd" d="M0.00294495 14.3249L1.50493 11.0904C2.89105 11.9857 4.99941 12.5924 6.90535 12.5924C8.98496 12.5924 9.7647 12.0435 9.7647 11.1772C9.7647 8.63527 0.378442 11.2347 0.378442 5.0255C0.378442 2.07961 3.03567 0 7.5698 0C9.70691 0 12.0752 0.49108 13.5481 1.35766L12.0464 4.56347C10.5157 3.69689 8.98496 3.40793 7.5698 3.40793C5.54798 3.40793 4.6817 4.04334 4.6817 4.85213C4.6817 7.50936 14.068 4.93867 14.068 11.0616C14.068 13.9497 11.382 16 6.73227 16C4.10408 16 1.44714 15.278 0.00294495 14.3249Z" fill="white"/>
</svg>
