<svg width="82" height="48" viewBox="0 0 82 48" fill="none" xmlns="http://www.w3.org/2000/svg">
<g clip-path="url(#clip0_1_52)">
<path d="M53.3954 20.6921C52.2576 20.4787 51.0557 19.8713 50.2064 19.1161L49.5654 18.5416L51.28 16.7686L51.7608 17.2118C52.5941 17.967 53.6998 18.4102 54.7415 18.4102C55.7831 18.4102 56.376 18.1476 56.6484 17.5566C57.017 16.7686 56.4401 15.997 55.11 15.5045C51.9851 14.339 51.3281 13.9286 50.8313 12.8451C50.0461 11.105 50.7352 9.20066 52.4499 8.42909C54.469 7.52619 56.9689 7.8381 58.7798 9.21708L59.6611 9.89015L58.8599 10.7274C58.4112 11.187 58.0266 11.5646 57.9785 11.5646C57.9304 11.5646 57.5939 11.3348 57.2253 11.0393C55.7671 9.90656 53.8921 9.89015 53.4915 10.9736C53.203 11.7288 53.7639 12.2377 55.4786 12.8287C58.3952 13.8137 59.4208 14.7166 59.7092 16.5224C59.8855 17.6879 59.2605 19.1818 58.283 19.8713C57.0971 20.7085 55.1421 21.0368 53.4114 20.7085L53.3954 20.6921ZM64.3725 20.7414C63.1225 20.5115 62.0809 19.7892 61.6643 18.8371C61.3117 18.0491 61.3438 16.6537 61.7284 15.8165C62.4495 14.2405 64.4526 13.2719 67.898 12.8123L69.18 12.6481L69.1479 12.1392C69.1159 11.4825 68.7633 10.8915 68.2185 10.5632C67.8659 10.3498 67.5615 10.3006 66.8083 10.317C65.7346 10.317 65.2218 10.514 64.3404 11.2035L63.7635 11.6631L62.129 9.95581L62.6418 9.49616C63.9719 8.31418 66.1032 7.69036 67.93 7.98585C69.853 8.28135 71.103 9.20066 71.7119 10.7602C71.9844 11.4661 72.0004 11.6959 72.0485 15.997L72.0965 20.4951H69.3883V19.2803L68.9717 19.625C68.2986 20.1832 67.6256 20.4951 66.7121 20.6921C65.7827 20.8891 65.2699 20.9055 64.3885 20.7414H64.3725ZM67.5615 18.1804C68.6992 17.6058 69.2601 16.6373 69.2601 15.2419C69.2601 13.8465 69.2761 14.6181 67.6736 14.9136C65.6865 15.2747 64.7411 15.8 64.3885 16.7358C64.1962 17.2775 64.4366 17.9506 64.9494 18.2625C65.5583 18.6401 66.7282 18.6072 67.5775 18.1804H67.5615ZM77.6252 20.7578C76.3592 20.4787 75.574 19.9041 75.0291 18.8699L74.6766 18.1968L74.5964 6.65613L75.9105 5.30999C76.6316 4.57125 77.3688 3.89818 77.3688 3.94743C77.3688 4.0131 77.4329 4.93241 77.4329 6.11439V8.28135H81.0385L80.9584 10.5796L77.4329 10.6453V17.4909L77.8014 17.8685C78.1059 18.1804 78.2822 18.2461 78.779 18.2461C79.2757 18.2461 79.5321 18.1476 79.8206 17.967L80.2693 17.6879L81.9679 19.4445L81.5834 19.7728C80.6058 20.6264 78.9232 21.0368 77.5931 20.7414L77.6252 20.7578Z" fill="white"/>
<path d="M0 0.5V47.5H45.8796V0.5H0ZM29.9828 7.87094L24.2138 13.7808H16.9064L14.0219 10.8259L11.1374 7.87094H29.9828ZM33.6686 33.8744C32.8513 35.3683 30.8001 37.486 29.3418 38.3561C27.1464 39.653 25.3996 40.1619 22.9318 40.244C22.0184 40.2768 21.121 40.2768 20.9447 40.244C20.7684 40.2111 20.2716 40.1291 19.855 40.047C16.5538 39.456 13.3969 37.3547 11.2656 34.3013L10.7848 33.6118L12.9963 31.2807C14.2142 30.0002 15.2558 28.9331 15.3039 28.9167C15.3359 28.9659 15.5282 29.245 15.8648 29.7539C17.3551 32.4955 20.0313 34.0386 22.9158 33.8416C26.4573 33.5954 28.7809 31.018 28.5886 27.5213C28.5245 26.1916 28.0438 25.0917 27.0823 24.0082L26.3932 23.2366L30.9123 18.6072L31.377 19.0669C32.0981 19.7728 33.3 21.3488 33.7807 22.2517C35.6877 25.7483 35.6236 30.2628 33.6365 33.9073L33.6686 33.8744ZM29.1816 18.9356C25.8163 22.383 23.0279 25.2066 22.9959 25.2066C22.9638 25.2066 22.0184 24.2709 20.9126 23.1381C19.8069 22.0054 18.8935 21.004 18.8935 20.9384C18.8935 20.7742 31.0405 8.3306 31.1206 8.39626C31.1526 8.4291 32.1141 9.39766 33.2519 10.5468L35.3191 12.6481L29.1976 18.9191L29.1816 18.9356Z" fill="white"/>
</g>
<defs>
<clipPath id="clip0_1_52">
<rect width="82" height="47" fill="white" transform="translate(0 0.5)"/>
</clipPath>
</defs>
</svg>
