<svg width="74" height="42" viewBox="0 0 74 42" fill="none" xmlns="http://www.w3.org/2000/svg">
<path fill-rule="evenodd" clip-rule="evenodd" d="M21.2917 0C9.67071 0 0.25 9.40202 0.25 21C0.25 32.598 9.67071 42 21.2917 42C27.5368 42 33.1464 39.2847 37 34.9727C40.8536 39.2847 46.4632 42 52.7082 42C64.3293 42 73.75 32.598 73.75 21C73.75 9.40202 64.3293 0 52.7082 0C46.4632 0 40.8536 2.7153 37 7.02734C33.1464 2.7153 27.5368 0 21.2917 0ZM21.2918 4.59375C30.3707 4.59375 37.7306 11.9391 37.7306 21C37.7306 30.0609 30.3707 37.4062 21.2918 37.4062C12.2128 37.4062 4.8529 30.0609 4.8529 21C4.8529 11.9391 12.2128 4.59375 21.2918 4.59375ZM12.36 29.251V13.027H23.1685C27.9139 13.027 31.993 16.0639 31.993 21.139C31.993 26.214 28.0966 29.251 23.1685 29.251H12.36ZM41.6874 14.1573H46.5414L48.7264 21.6905L51.4548 14.1573H55.1467L57.8751 21.7247L60.0601 14.1573H64.9141L60.3615 28.5219H56.1924L53.2836 21.5128L50.336 28.5219H46.24L41.6874 14.1573ZM22.4082 17.7164H17.5108V24.525H22.4813C25.1038 24.525 26.5134 23.3625 26.5134 21.1754C26.5134 18.9722 25.0135 17.7164 22.4082 17.7164Z" fill="white"/>
</svg>
