<svg width="85" height="16" viewBox="0 0 85 16" fill="none" xmlns="http://www.w3.org/2000/svg">
<path fill-rule="evenodd" clip-rule="evenodd" d="M13.401 0.231411L8.95337 10.8017L4.64982 0.231411H0.000106812L6.52701 15.7691H11.177L17.733 0.231411H13.401Z" fill="white"/>
<path fill-rule="evenodd" clip-rule="evenodd" d="M27.0029 14.3249L28.5049 11.0904C29.891 11.9857 31.9994 12.5924 33.9053 12.5924C35.985 12.5924 36.7647 12.0435 36.7647 11.1772C36.7647 8.63527 27.3784 11.2347 27.3784 5.0255C27.3784 2.07961 30.0357 0 34.5698 0C36.7069 0 39.0752 0.49108 40.5481 1.35766L39.0464 4.56347C37.5157 3.69689 35.985 3.40793 34.5698 3.40793C32.548 3.40793 31.6817 4.04334 31.6817 4.85213C31.6817 7.50936 41.068 4.93867 41.068 11.0616C41.068 13.9497 38.382 16 33.7323 16C31.1041 16 28.4471 15.278 27.0029 14.3249Z" fill="white"/>
<mask id="mask0_293_487" style="mask-type:luminance" maskUnits="userSpaceOnUse" x="68" y="0" width="17" height="16">
<path fill-rule="evenodd" clip-rule="evenodd" d="M68.2136 0H84.0976V15.769H68.2136V0Z" fill="white"/>
</mask>
<g mask="url(#mask0_293_487)">
<path fill-rule="evenodd" clip-rule="evenodd" d="M84.0977 6.87381V15.769H79.5926V7.56672C79.5926 5.05441 78.4371 3.89887 76.4443 3.89887C74.2782 3.89887 72.7187 5.22749 72.7187 8.08684V15.769H68.2136V0.231028H72.5166V2.05072C73.7296 0.722108 75.549 -0.000137329 77.6574 -0.000137329C81.3252 -0.000137329 84.0977 2.13726 84.0977 6.87381Z" fill="white"/>
</g>
<path fill-rule="evenodd" clip-rule="evenodd" d="M58.0897 15.7823C53.8217 15.7823 50.3615 12.3224 50.3615 8.05407C50.3615 3.78631 53.8217 0.326164 58.0897 0.326164C62.3578 0.326164 65.8176 3.78631 65.8176 8.05407C65.8176 12.3224 62.3578 15.7823 58.0897 15.7823Z" fill="#FF153E"/>
<path fill-rule="evenodd" clip-rule="evenodd" d="M43.4368 15.7823H47.8528V0.326164H43.4368V15.7823Z" fill="white"/>
<path fill-rule="evenodd" clip-rule="evenodd" d="M26.4975 0.237938L20.0085 15.7694H15.3294L21.8892 0.237938H26.4975Z" fill="#FF153E"/>
</svg>
