<svg width="96" height="52" viewBox="0 0 96 52" fill="none" xmlns="http://www.w3.org/2000/svg">
<path d="M24.7003 14.2807H0V51.4944H11.5647V25.4896H19.4479C21.0662 25.4896 21.8991 26.291 21.8991 27.9699V51.4944H33.4637V23.1334C33.4637 17.8962 29.8959 14.2807 24.7003 14.2807ZM83.4416 14.2616L75.7571 36.5269L68.0915 14.2616H50.877V0L39.3123 2.30857C39.3123 2.30857 39.3123 29.4581 39.3123 42.8802C39.3123 48.499 42.776 52 48.3785 52C49.5426 52 57.7949 52 57.7949 52V41.0868C57.7949 41.0868 53.7729 41.0868 53.3565 41.0868C51.8707 41.0868 50.8864 40.5335 50.8864 38.492C50.8864 34.8575 50.8864 25.4992 50.8864 25.4992H59.9054L69.9748 51.5326H81.5867L96 14.2616H83.4416Z" fill="white"/>
</svg>
