<svg width="20" height="20" viewBox="0 0 20 20" fill="none" xmlns="http://www.w3.org/2000/svg">
<path d="M13.4116 11.6257C13.5154 11.5566 13.6349 11.5145 13.7591 11.5032C13.8834 11.4919 14.0085 11.5118 14.1231 11.561L18.5444 13.542C18.6934 13.6057 18.8177 13.7159 18.8989 13.8562C18.98 13.9964 19.0135 14.1592 18.9944 14.3201C18.8487 15.4086 18.3127 16.4071 17.486 17.13C16.6593 17.8529 15.5982 18.2509 14.5 18.2501C11.1185 18.2501 7.87548 16.9068 5.48439 14.5157C3.0933 12.1246 1.75 8.88161 1.75 5.5001C1.74916 4.40192 2.1472 3.3408 2.87009 2.5141C3.59298 1.6874 4.59152 1.15138 5.68 1.00573C5.84091 0.986611 6.00368 1.02012 6.14395 1.10124C6.28422 1.18236 6.39444 1.30673 6.45813 1.45573L8.43906 5.88073C8.48774 5.99438 8.50756 6.1183 8.49676 6.24146C8.48597 6.36463 8.44489 6.48321 8.37719 6.58666L6.37375 8.96885C6.30269 9.07609 6.26066 9.19992 6.25179 9.32826C6.24291 9.4566 6.26749 9.58505 6.32313 9.70104C7.09844 11.2882 8.73906 12.9092 10.3309 13.677C10.4475 13.7324 10.5766 13.7564 10.7053 13.7467C10.834 13.737 10.958 13.6939 11.065 13.6217L13.4116 11.6257Z" stroke="white" stroke-width="2" stroke-linecap="round" stroke-linejoin="round"/>
</svg>
