<svg width="220" height="40" viewBox="0 0 220 40" fill="none" xmlns="http://www.w3.org/2000/svg">
<path d="M151.244 0.5V39.5H220V0.5H151.244ZM198.632 30.5365H172.612V9.46349H177.385V26.3826H198.632V30.5365Z" fill="white"/>
<path d="M75.6245 0.5V39.5H144.38V0.5H75.6245ZM124.472 13.6174H112.384V30.5316H107.611V13.6174H95.5227V9.46349H124.468V13.6174H124.472Z" fill="white"/>
<path d="M41.6153 16.2986C41.6153 14.3415 40.1843 13.407 37.2302 13.407H24.3075V19.2147H37.2302C40.1843 19.2147 41.6153 18.2557 41.6153 16.2986Z" fill="white"/>
<path d="M0 0.5V39.5H68.7558V0.5H0ZM42.3284 30.5365L33.8831 23.1583H24.3075V30.5316H19.5343V9.46349H37.8559C43.4344 9.46349 46.5389 11.993 46.5389 16.235C46.5389 19.8752 44.2105 22.3167 40.2425 22.8892L49.2263 30.5365H42.3284Z" fill="white"/>
</svg>
