<svg width="96" height="28" viewBox="0 0 96 28" fill="none" xmlns="http://www.w3.org/2000/svg">
<path fill-rule="evenodd" clip-rule="evenodd" d="M69.0355 9.10967V0L82.8419 14.0007L69.0355 28V18.8916L73.8992 14.0007L69.0355 9.10967ZM81.4415 9.10967V0L95.25 14.0007L81.4415 28V18.8916L86.3052 14.0007L81.4415 9.10967ZM38.5057 1.39983L35.9811 17.0018L33.4544 1.39983H27.6226L25.0971 17.0018L22.5711 1.39983H16.736L21.1644 26.6035H27.7027L30.5374 10.4267L33.375 26.6035H39.9125L44.3417 1.39983H38.5057ZM1.52288 26.4113C3.11697 26.7858 4.94221 26.9725 6.68436 26.9725C13.0822 26.9725 16.9735 23.3414 16.9735 18.4462C16.9735 13.8274 13.525 12.4302 10.6719 11.2741C8.65904 10.4586 6.94254 9.76307 6.94254 8.14112C6.94254 6.72342 8.09919 5.67777 10.5226 5.67777C12.0065 5.67777 13.8859 6.05329 15.2939 6.46257L15.3052 1.32128C13.7487 1.02221 12.0804 0.873762 10.7466 0.873762C4.45964 0.873762 0.645058 4.00226 0.752199 8.73839C0.862585 13.6016 4.23668 14.9175 7.04137 16.0112C9.05976 16.7983 10.7833 17.4705 10.7833 19.267C10.7833 21.0592 9.25539 21.9551 7.13023 21.9551C5.31215 21.9551 3.18825 21.4134 1.78061 20.8896L1.52288 26.4113ZM57.0303 9.17345C57.0303 7.1967 55.8745 6.00466 53.1495 6.00466C52.5548 6.00466 51.8819 6.04072 51.5466 6.07894V12.531C51.844 12.567 52.4409 12.604 53.0018 12.604C55.4654 12.604 57.0303 11.3008 57.0303 9.17345ZM57.7369 26.5915H64.7793L59.4833 18.497C59.3988 18.3726 59.3144 18.2482 59.23 18.1237C58.6815 17.3152 58.1307 16.5033 57.5513 15.6634C60.8942 14.8425 62.9717 12.0832 62.9717 8.68958C62.9717 3.34468 59.5212 1.20884 53.5988 1.20884C50.5805 1.20884 47.8695 1.24576 45.7527 1.39551V26.5915H51.5466V16.7451H51.7701L57.7369 26.5915Z" fill="white"/>
</svg>
