<svg width="142" height="83" viewBox="0 0 142 83" fill="none" xmlns="http://www.w3.org/2000/svg">
<path d="M41.2607 0C57.4714 0 71.4515 9.32003 78.2295 22.876H95.0332C105.059 22.8761 110.537 27.2533 112.034 36.46V35.6973C112.034 27.8744 115.706 22.876 124.63 22.876H141.208V29.4277H127.426C121.241 29.4278 119.942 31.9975 119.914 36.2617L119.801 38.8887H138.384V45.3555H119.829V59.9004H111.978V47.5303C111.187 51.5123 109.492 54.5626 106.781 56.709C103.025 59.7026 99.3255 59.957 95.2305 59.957H78.0879C71.2816 73.3717 57.3584 82.5498 41.2607 82.5498C18.4981 82.5497 0 64.0799 0 41.2891C4.31473e-05 18.4982 18.4982 8.25991e-05 41.2607 0ZM47.1914 22.876V29.3994H64.5605C68.74 29.3995 71.1406 30.388 71.1406 33.9463C71.1406 37.3918 68.7396 38.2109 64.6729 38.2109H59.5332C50.6372 38.2109 46.9659 42.8423 46.9658 50.6934V59.8721H78.1162V53.5459H54.9014V51.5693C54.9014 47.3049 56.2292 45.0732 62.4424 45.0732H67.4121C77.3812 45.0732 79.1327 38.3241 79.1328 34.0596C79.1328 30.0493 77.6638 22.876 67.4121 22.876H47.1914ZM86.1934 29.4277V53.4043H94.8633C101.698 53.4043 104.127 50.496 104.127 41.4307C104.127 32.3369 101.669 29.4277 94.8633 29.4277H86.1934Z" fill="white"/>
</svg>
